<svg width="303" height="31" viewBox="0 0 303 31" fill="none" xmlns="http://www.w3.org/2000/svg">
<path d="M3.63636 0.727272V24H0.818182V0.727272H3.63636ZM11.6051 13.5V24H8.9233V6.54545H11.5142V9.27273H11.7415C12.1506 8.38636 12.7718 7.67424 13.6051 7.13636C14.4384 6.59091 15.5142 6.31818 16.8324 6.31818C18.0142 6.31818 19.0483 6.56061 19.9347 7.04545C20.821 7.52273 21.5104 8.25 22.0028 9.22727C22.4953 10.197 22.7415 11.4242 22.7415 12.9091V24H20.0597V13.0909C20.0597 11.7197 19.7036 10.6515 18.9915 9.88636C18.2794 9.11364 17.3021 8.72727 16.0597 8.72727C15.2036 8.72727 14.4384 8.91288 13.7642 9.28409C13.0975 9.6553 12.571 10.197 12.1847 10.9091C11.7983 11.6212 11.6051 12.4848 11.6051 13.5ZM34.6875 30.9091C33.392 30.9091 32.2784 30.7424 31.3466 30.4091C30.4148 30.0833 29.6383 29.6515 29.017 29.1136C28.4034 28.5833 27.9148 28.0152 27.5511 27.4091L29.6875 25.9091C29.9299 26.2273 30.2367 26.5909 30.608 27C30.9792 27.4167 31.4867 27.7765 32.1307 28.0795C32.7822 28.3902 33.6345 28.5455 34.6875 28.5455C36.0966 28.5455 37.2595 28.2045 38.1761 27.5227C39.0928 26.8409 39.5511 25.7727 39.5511 24.3182V20.7727H39.3239C39.1269 21.0909 38.8466 21.4848 38.483 21.9545C38.1269 22.4167 37.6117 22.8295 36.9375 23.1932C36.2708 23.5492 35.3693 23.7273 34.233 23.7273C32.8239 23.7273 31.5587 23.3939 30.4375 22.7273C29.3239 22.0606 28.4413 21.0909 27.7898 19.8182C27.1458 18.5455 26.8239 17 26.8239 15.1818C26.8239 13.3939 27.1383 11.8371 27.767 10.5114C28.3958 9.17803 29.2708 8.14773 30.392 7.42045C31.5133 6.68561 32.8087 6.31818 34.2784 6.31818C35.4148 6.31818 36.3163 6.50758 36.983 6.88636C37.6572 7.25758 38.1723 7.68182 38.5284 8.15909C38.892 8.62879 39.1723 9.01515 39.3693 9.31818H39.642V6.54545H42.233V24.5C42.233 26 41.892 27.2197 41.2102 28.1591C40.536 29.1061 39.6269 29.7992 38.483 30.2386C37.3466 30.6856 36.0814 30.9091 34.6875 30.9091ZM34.5966 21.3182C35.6723 21.3182 36.5814 21.072 37.3239 20.5795C38.0663 20.0871 38.6307 19.3788 39.017 18.4545C39.4034 17.5303 39.5966 16.4242 39.5966 15.1364C39.5966 13.8788 39.4072 12.7689 39.0284 11.8068C38.6496 10.8447 38.089 10.0909 37.3466 9.54545C36.6042 9 35.6875 8.72727 34.5966 8.72727C33.4602 8.72727 32.5133 9.01515 31.7557 9.59091C31.0057 10.1667 30.4413 10.9394 30.0625 11.9091C29.6913 12.8788 29.5057 13.9545 29.5057 15.1364C29.5057 16.3485 29.6951 17.4205 30.0739 18.3523C30.4602 19.2765 31.0284 20.0038 31.7784 20.5341C32.536 21.0568 33.4754 21.3182 34.5966 21.3182ZM47.142 24V6.54545H49.733V9.18182H49.9148C50.233 8.31818 50.8087 7.61742 51.642 7.07954C52.4754 6.54167 53.4148 6.27273 54.4602 6.27273C54.6572 6.27273 54.9034 6.27651 55.1989 6.28409C55.4943 6.29167 55.7178 6.30303 55.8693 6.31818V9.04545C55.7784 9.02273 55.5701 8.98864 55.2443 8.94318C54.9261 8.89015 54.589 8.86364 54.233 8.86364C53.3845 8.86364 52.6269 9.04167 51.9602 9.39773C51.3011 9.74621 50.7784 10.2311 50.392 10.8523C50.0133 11.4659 49.8239 12.1667 49.8239 12.9545V24H47.142ZM65.8352 24.3636C64.1534 24.3636 62.7027 23.9924 61.483 23.25C60.2708 22.5 59.3352 21.4545 58.6761 20.1136C58.0246 18.7652 57.6989 17.197 57.6989 15.4091C57.6989 13.6212 58.0246 12.0455 58.6761 10.6818C59.3352 9.31061 60.2519 8.24242 61.4261 7.47727C62.608 6.70455 63.9867 6.31818 65.5625 6.31818C66.4716 6.31818 67.3693 6.4697 68.2557 6.77273C69.142 7.07576 69.9489 7.56818 70.6761 8.25C71.4034 8.92424 71.983 9.81818 72.4148 10.9318C72.8466 12.0455 73.0625 13.4167 73.0625 15.0455V16.1818H59.608V13.8636H70.3352C70.3352 12.8788 70.1383 12 69.7443 11.2273C69.358 10.4545 68.8049 9.8447 68.0852 9.39773C67.3731 8.95076 66.5322 8.72727 65.5625 8.72727C64.4943 8.72727 63.5701 8.99242 62.7898 9.52273C62.017 10.0455 61.4223 10.7273 61.0057 11.5682C60.589 12.4091 60.3807 13.3106 60.3807 14.2727V15.8182C60.3807 17.1364 60.608 18.2538 61.0625 19.1705C61.5246 20.0795 62.1648 20.7727 62.983 21.25C63.8011 21.7197 64.7519 21.9545 65.8352 21.9545C66.5398 21.9545 67.1761 21.8561 67.7443 21.6591C68.3201 21.4545 68.8163 21.1515 69.233 20.75C69.6496 20.3409 69.9716 19.8333 70.1989 19.2273L72.7898 19.9545C72.517 20.8333 72.0587 21.6061 71.4148 22.2727C70.7708 22.9318 69.9754 23.447 69.0284 23.8182C68.0814 24.1818 67.017 24.3636 65.8352 24.3636ZM89.5057 10.4545L87.0966 11.1364C86.9451 10.7348 86.7216 10.3447 86.4261 9.96591C86.1383 9.57955 85.7443 9.26136 85.2443 9.01136C84.7443 8.76136 84.1042 8.63636 83.3239 8.63636C82.2557 8.63636 81.3655 8.88258 80.6534 9.375C79.9489 9.85985 79.5966 10.4773 79.5966 11.2273C79.5966 11.8939 79.839 12.4205 80.3239 12.8068C80.8087 13.1932 81.5663 13.5152 82.5966 13.7727L85.1875 14.4091C86.7481 14.7879 87.911 15.3674 88.6761 16.1477C89.4413 16.9205 89.8239 17.9167 89.8239 19.1364C89.8239 20.1364 89.536 21.0303 88.9602 21.8182C88.392 22.6061 87.5966 23.2273 86.5739 23.6818C85.5511 24.1364 84.3617 24.3636 83.0057 24.3636C81.2254 24.3636 79.7519 23.9773 78.5852 23.2045C77.4186 22.4318 76.6799 21.303 76.3693 19.8182L78.9148 19.1818C79.1572 20.1212 79.6155 20.8258 80.2898 21.2955C80.9716 21.7652 81.8617 22 82.9602 22C84.2102 22 85.2027 21.7348 85.9375 21.2045C86.6799 20.6667 87.0511 20.0227 87.0511 19.2727C87.0511 18.6667 86.839 18.1591 86.4148 17.75C85.9905 17.3333 85.339 17.0227 84.4602 16.8182L81.5511 16.1364C79.9527 15.7576 78.7784 15.1705 78.0284 14.375C77.286 13.572 76.9148 12.5682 76.9148 11.3636C76.9148 10.3788 77.1913 9.50758 77.7443 8.75C78.3049 7.99242 79.0663 7.39773 80.0284 6.96591C80.9981 6.53409 82.0966 6.31818 83.3239 6.31818C85.0511 6.31818 86.4072 6.69697 87.392 7.45454C88.3845 8.21212 89.089 9.21212 89.5057 10.4545ZM101.179 24.3636C99.4972 24.3636 98.0464 23.9924 96.8267 23.25C95.6146 22.5 94.679 21.4545 94.0199 20.1136C93.3684 18.7652 93.0426 17.197 93.0426 15.4091C93.0426 13.6212 93.3684 12.0455 94.0199 10.6818C94.679 9.31061 95.5956 8.24242 96.7699 7.47727C97.9517 6.70455 99.3305 6.31818 100.906 6.31818C101.815 6.31818 102.713 6.4697 103.599 6.77273C104.486 7.07576 105.293 7.56818 106.02 8.25C106.747 8.92424 107.327 9.81818 107.759 10.9318C108.19 12.0455 108.406 13.4167 108.406 15.0455V16.1818H94.9517V13.8636H105.679C105.679 12.8788 105.482 12 105.088 11.2273C104.702 10.4545 104.149 9.8447 103.429 9.39773C102.717 8.95076 101.876 8.72727 100.906 8.72727C99.8381 8.72727 98.9138 8.99242 98.1335 9.52273C97.3608 10.0455 96.7661 10.7273 96.3494 11.5682C95.9328 12.4091 95.7244 13.3106 95.7244 14.2727V15.8182C95.7244 17.1364 95.9517 18.2538 96.4062 19.1705C96.8684 20.0795 97.5085 20.7727 98.3267 21.25C99.1449 21.7197 100.096 21.9545 101.179 21.9545C101.884 21.9545 102.52 21.8561 103.088 21.6591C103.664 21.4545 104.16 21.1515 104.577 20.75C104.993 20.3409 105.315 19.8333 105.543 19.2273L108.134 19.9545C107.861 20.8333 107.402 21.6061 106.759 22.2727C106.115 22.9318 105.319 23.447 104.372 23.8182C103.425 24.1818 102.361 24.3636 101.179 24.3636ZM128.804 24.3636C127.122 24.3636 125.671 23.9924 124.452 23.25C123.24 22.5 122.304 21.4545 121.645 20.1136C120.993 18.7652 120.668 17.197 120.668 15.4091C120.668 13.6212 120.993 12.0455 121.645 10.6818C122.304 9.31061 123.221 8.24242 124.395 7.47727C125.577 6.70455 126.955 6.31818 128.531 6.31818C129.44 6.31818 130.338 6.4697 131.224 6.77273C132.111 7.07576 132.918 7.56818 133.645 8.25C134.372 8.92424 134.952 9.81818 135.384 10.9318C135.815 12.0455 136.031 13.4167 136.031 15.0455V16.1818H122.577V13.8636H133.304C133.304 12.8788 133.107 12 132.713 11.2273C132.327 10.4545 131.774 9.8447 131.054 9.39773C130.342 8.95076 129.501 8.72727 128.531 8.72727C127.463 8.72727 126.539 8.99242 125.759 9.52273C124.986 10.0455 124.391 10.7273 123.974 11.5682C123.558 12.4091 123.349 13.3106 123.349 14.2727V15.8182C123.349 17.1364 123.577 18.2538 124.031 19.1705C124.493 20.0795 125.134 20.7727 125.952 21.25C126.77 21.7197 127.721 21.9545 128.804 21.9545C129.509 21.9545 130.145 21.8561 130.713 21.6591C131.289 21.4545 131.785 21.1515 132.202 20.75C132.618 20.3409 132.94 19.8333 133.168 19.2273L135.759 19.9545C135.486 20.8333 135.027 21.6061 134.384 22.2727C133.74 22.9318 132.944 23.447 131.997 23.8182C131.05 24.1818 129.986 24.3636 128.804 24.3636ZM142.793 0.727272V24H140.111V0.727272H142.793ZM164.295 6.54545V8.81818H155.25V6.54545H164.295ZM157.886 2.36364H160.568V19C160.568 19.7576 160.678 20.3258 160.898 20.7045C161.125 21.0758 161.413 21.3258 161.761 21.4545C162.117 21.5758 162.492 21.6364 162.886 21.6364C163.182 21.6364 163.424 21.6212 163.614 21.5909C163.803 21.553 163.955 21.5227 164.068 21.5L164.614 23.9091C164.432 23.9773 164.178 24.0455 163.852 24.1136C163.527 24.1894 163.114 24.2273 162.614 24.2273C161.856 24.2273 161.114 24.0644 160.386 23.7386C159.667 23.4129 159.068 22.9167 158.591 22.25C158.121 21.5833 157.886 20.7424 157.886 19.7273V2.36364ZM175.46 24.3636C173.778 24.3636 172.328 23.9924 171.108 23.25C169.896 22.5 168.96 21.4545 168.301 20.1136C167.65 18.7652 167.324 17.197 167.324 15.4091C167.324 13.6212 167.65 12.0455 168.301 10.6818C168.96 9.31061 169.877 8.24242 171.051 7.47727C172.233 6.70455 173.612 6.31818 175.188 6.31818C176.097 6.31818 176.994 6.4697 177.881 6.77273C178.767 7.07576 179.574 7.56818 180.301 8.25C181.028 8.92424 181.608 9.81818 182.04 10.9318C182.472 12.0455 182.688 13.4167 182.688 15.0455V16.1818H169.233V13.8636H179.96C179.96 12.8788 179.763 12 179.369 11.2273C178.983 10.4545 178.43 9.8447 177.71 9.39773C176.998 8.95076 176.157 8.72727 175.188 8.72727C174.119 8.72727 173.195 8.99242 172.415 9.52273C171.642 10.0455 171.047 10.7273 170.631 11.5682C170.214 12.4091 170.006 13.3106 170.006 14.2727V15.8182C170.006 17.1364 170.233 18.2538 170.688 19.1705C171.15 20.0795 171.79 20.7727 172.608 21.25C173.426 21.7197 174.377 21.9545 175.46 21.9545C176.165 21.9545 176.801 21.8561 177.369 21.6591C177.945 21.4545 178.441 21.1515 178.858 20.75C179.275 20.3409 179.597 19.8333 179.824 19.2273L182.415 19.9545C182.142 20.8333 181.684 21.6061 181.04 22.2727C180.396 22.9318 179.6 23.447 178.653 23.8182C177.706 24.1818 176.642 24.3636 175.46 24.3636ZM188.298 6.54545L192.48 13.6818L196.662 6.54545H199.753L194.116 15.2727L199.753 24H196.662L192.48 17.2273L188.298 24H185.207L190.753 15.2727L185.207 6.54545H188.298ZM211.17 6.54545V8.81818H202.125V6.54545H211.17ZM204.761 2.36364H207.443V19C207.443 19.7576 207.553 20.3258 207.773 20.7045C208 21.0758 208.288 21.3258 208.636 21.4545C208.992 21.5758 209.367 21.6364 209.761 21.6364C210.057 21.6364 210.299 21.6212 210.489 21.5909C210.678 21.553 210.83 21.5227 210.943 21.5L211.489 23.9091C211.307 23.9773 211.053 24.0455 210.727 24.1136C210.402 24.1894 209.989 24.2273 209.489 24.2273C208.731 24.2273 207.989 24.0644 207.261 23.7386C206.542 23.4129 205.943 22.9167 205.466 22.25C204.996 21.5833 204.761 20.7424 204.761 19.7273V2.36364ZM222.108 24.3636C220.532 24.3636 219.15 23.9886 217.96 23.2386C216.778 22.4886 215.854 21.4394 215.188 20.0909C214.528 18.7424 214.199 17.1667 214.199 15.3636C214.199 13.5455 214.528 11.9583 215.188 10.6023C215.854 9.24621 216.778 8.19318 217.96 7.44318C219.15 6.69318 220.532 6.31818 222.108 6.31818C223.684 6.31818 225.063 6.69318 226.244 7.44318C227.434 8.19318 228.358 9.24621 229.017 10.6023C229.684 11.9583 230.017 13.5455 230.017 15.3636C230.017 17.1667 229.684 18.7424 229.017 20.0909C228.358 21.4394 227.434 22.4886 226.244 23.2386C225.063 23.9886 223.684 24.3636 222.108 24.3636ZM222.108 21.9545C223.305 21.9545 224.29 21.6477 225.062 21.0341C225.835 20.4205 226.407 19.6136 226.778 18.6136C227.15 17.6136 227.335 16.5303 227.335 15.3636C227.335 14.197 227.15 13.1098 226.778 12.1023C226.407 11.0947 225.835 10.2803 225.062 9.65909C224.29 9.03788 223.305 8.72727 222.108 8.72727C220.911 8.72727 219.926 9.03788 219.153 9.65909C218.381 10.2803 217.809 11.0947 217.438 12.1023C217.066 13.1098 216.881 14.197 216.881 15.3636C216.881 16.5303 217.066 17.6136 217.438 18.6136C217.809 19.6136 218.381 20.4205 219.153 21.0341C219.926 21.6477 220.911 21.9545 222.108 21.9545ZM248.247 24.4091C247.141 24.4091 246.137 24.2008 245.236 23.7841C244.334 23.3598 243.618 22.75 243.088 21.9545C242.558 21.1515 242.293 20.1818 242.293 19.0455C242.293 18.0455 242.49 17.2348 242.884 16.6136C243.277 15.9848 243.804 15.4924 244.463 15.1364C245.122 14.7803 245.849 14.5152 246.645 14.3409C247.448 14.1591 248.255 14.0152 249.065 13.9091C250.126 13.7727 250.986 13.6705 251.645 13.6023C252.312 13.5265 252.796 13.4015 253.099 13.2273C253.41 13.053 253.565 12.75 253.565 12.3182V12.2273C253.565 11.1061 253.259 10.2348 252.645 9.61364C252.039 8.99242 251.118 8.68182 249.884 8.68182C248.603 8.68182 247.599 8.96212 246.872 9.52273C246.145 10.0833 245.634 10.6818 245.338 11.3182L242.793 10.4091C243.247 9.34848 243.853 8.52273 244.611 7.93182C245.376 7.33333 246.209 6.91667 247.111 6.68182C248.02 6.43939 248.914 6.31818 249.793 6.31818C250.353 6.31818 250.997 6.38636 251.724 6.52273C252.459 6.65151 253.168 6.92045 253.849 7.32954C254.539 7.73864 255.111 8.35606 255.565 9.18182C256.02 10.0076 256.247 11.1136 256.247 12.5V24H253.565V21.6364H253.429C253.247 22.0152 252.944 22.4205 252.52 22.8523C252.096 23.2841 251.531 23.6515 250.827 23.9545C250.122 24.2576 249.262 24.4091 248.247 24.4091ZM248.656 22C249.717 22 250.611 21.7917 251.338 21.375C252.073 20.9583 252.626 20.4205 252.997 19.7614C253.376 19.1023 253.565 18.4091 253.565 17.6818V15.2273C253.452 15.3636 253.202 15.4886 252.815 15.6023C252.437 15.7083 251.997 15.803 251.497 15.8864C251.005 15.9621 250.524 16.0303 250.054 16.0909C249.592 16.1439 249.217 16.1894 248.929 16.2273C248.232 16.3182 247.58 16.4659 246.974 16.6705C246.376 16.8674 245.891 17.1667 245.52 17.5682C245.156 17.9621 244.974 18.5 244.974 19.1818C244.974 20.1136 245.319 20.8182 246.009 21.2955C246.705 21.7652 247.588 22 248.656 22ZM273.051 30.5455V21.3182H272.824C272.627 21.6364 272.347 22.0379 271.983 22.5227C271.619 23 271.1 23.428 270.426 23.8068C269.752 24.178 268.854 24.3636 267.733 24.3636C266.278 24.3636 264.994 23.9962 263.881 23.2614C262.767 22.5189 261.896 21.4735 261.267 20.125C260.638 18.7689 260.324 17.1667 260.324 15.3182C260.324 13.4848 260.638 11.8939 261.267 10.5455C261.896 9.19697 262.771 8.1553 263.892 7.42045C265.013 6.68561 266.309 6.31818 267.778 6.31818C268.915 6.31818 269.813 6.50758 270.472 6.88636C271.138 7.25758 271.646 7.68182 271.994 8.15909C272.35 8.62879 272.627 9.01515 272.824 9.31818H273.142V6.54545H275.733V30.5455H273.051ZM268.097 21.9545C269.172 21.9545 270.081 21.6742 270.824 21.1136C271.566 20.5455 272.131 19.7614 272.517 18.7614C272.903 17.7538 273.097 16.5909 273.097 15.2727C273.097 13.9697 272.907 12.8295 272.528 11.8523C272.15 10.8674 271.589 10.1023 270.847 9.55682C270.104 9.00379 269.188 8.72727 268.097 8.72727C266.96 8.72727 266.013 9.01894 265.256 9.60227C264.506 10.178 263.941 10.9621 263.562 11.9545C263.191 12.9394 263.006 14.0455 263.006 15.2727C263.006 16.5152 263.195 17.6439 263.574 18.6591C263.96 19.6667 264.528 20.4697 265.278 21.0682C266.036 21.6591 266.975 21.9545 268.097 21.9545ZM291.642 16.8636V6.54545H294.324V24H291.642V21.0455H291.46C291.051 21.9318 290.415 22.6856 289.551 23.3068C288.688 23.9205 287.597 24.2273 286.278 24.2273C285.188 24.2273 284.218 23.9886 283.369 23.5114C282.521 23.0265 281.854 22.2992 281.369 21.3295C280.884 20.3523 280.642 19.1212 280.642 17.6364V6.54545H283.324V17.4545C283.324 18.7273 283.68 19.7424 284.392 20.5C285.112 21.2576 286.028 21.6364 287.142 21.6364C287.809 21.6364 288.487 21.4659 289.176 21.125C289.873 20.7841 290.456 20.2614 290.926 19.5568C291.403 18.8523 291.642 17.9545 291.642 16.8636ZM299.236 24V6.54545H301.918V24H299.236ZM300.599 3.63636C300.077 3.63636 299.626 3.45833 299.247 3.10227C298.876 2.74621 298.69 2.31818 298.69 1.81818C298.69 1.31818 298.876 0.890151 299.247 0.53409C299.626 0.17803 300.077 0 300.599 0C301.122 0 301.569 0.17803 301.94 0.53409C302.319 0.890151 302.509 1.31818 302.509 1.81818C302.509 2.31818 302.319 2.74621 301.94 3.10227C301.569 3.45833 301.122 3.63636 300.599 3.63636Z" fill="#0A3871"/>
</svg>
